<?xml version="1.0" encoding="UTF-8" standalone="no"?>
<svg width="91px" height="91px" viewBox="0 0 91 91" version="1.1" xmlns="http://www.w3.org/2000/svg" xmlns:xlink="http://www.w3.org/1999/xlink">
    <!-- Generator: Sketch 3.8.3 (29802) - http://www.bohemiancoding.com/sketch -->
    <title>1V1 专属客服</title>
    <desc>Created with Sketch.</desc>
    <defs>
        <filter x="-50%" y="-50%" width="200%" height="200%" filterUnits="objectBoundingBox" id="filter-1">
            <feOffset dx="0" dy="1" in="SourceAlpha" result="shadowOffsetOuter1"></feOffset>
            <feGaussianBlur stdDeviation="1" in="shadowOffsetOuter1" result="shadowBlurOuter1"></feGaussianBlur>
            <feColorMatrix values="0 0 0 0 0   0 0 0 0 0   0 0 0 0 0  0 0 0 0 0" type="matrix" in="shadowBlurOuter1" result="shadowMatrixOuter1"></feColorMatrix>
            <feMerge>
                <feMergeNode in="shadowMatrixOuter1"></feMergeNode>
                <feMergeNode in="SourceGraphic"></feMergeNode>
            </feMerge>
        </filter>
    </defs>
    <g id="Web" stroke="none" stroke-width="1" fill="none" fill-rule="evenodd">
        <g id="Home" transform="translate(-1065.000000, -4436.000000)" stroke-width="2" stroke="#fff">
            <g id="快速导航" transform="translate(0.000000, 4272.000000)">
                <g id="Group-9" filter="url(#filter-1)" transform="translate(0.000000, 126.000000)">
                    <g id="1V1-专属客服" transform="translate(1052.000000, 24.000000)">
                        <g>
                            <path d="M20.4185246,77.1077549 C27.3449176,90.9996628 41.6936423,100.542373 58.2711864,100.542373 C81.6169181,100.542373 100.542373,81.6169181 100.542373,58.2711864 C100.542373,34.9254548 81.6169181,16 58.2711864,16 C34.9254548,16 16,34.9254548 16,58.2711864" id="Oval-7" transform="translate(58.271186, 58.271186) rotate(-30.000000) translate(-58.271186, -58.271186) "></path>
                            <g id="Group-16" transform="translate(38.000000, 35.000000)">
                                <path d="M40,46.1296296 C40,35.0737071 31.045695,26.1111111 20,26.1111111 C8.954305,26.1111111 0,35.0737071 0,46.1296296" id="Oval-38"></path>
                                <ellipse id="Oval-39" cx="20" cy="13.0555556" rx="13.0434783" ry="13.0555556"></ellipse>
                            </g>
                        </g>
                    </g>
                </g>
            </g>
        </g>
    </g>
</svg>
