<?xml version="1.0" encoding="UTF-8" standalone="no"?>
<svg width="91px" height="91px" viewBox="0 0 91 91" version="1.1" xmlns="http://www.w3.org/2000/svg" xmlns:xlink="http://www.w3.org/1999/xlink">
    <!-- Generator: Sketch 3.8.3 (29802) - http://www.bohemiancoding.com/sketch -->
    <title>7X24 小时售后</title>
    <desc>Created with Sketch.</desc>
    <defs>
        <filter x="-50%" y="-50%" width="200%" height="200%" filterUnits="objectBoundingBox" id="filter-1">
            <feOffset dx="0" dy="1" in="SourceAlpha" result="shadowOffsetOuter1"></feOffset>
            <feGaussianBlur stdDeviation="1" in="shadowOffsetOuter1" result="shadowBlurOuter1"></feGaussianBlur>
            <feColorMatrix values="0 0 0 0 0   0 0 0 0 0   0 0 0 0 0  0 0 0 0 0" type="matrix" in="shadowBlurOuter1" result="shadowMatrixOuter1"></feColorMatrix>
            <feMerge>
                <feMergeNode in="shadowMatrixOuter1"></feMergeNode>
                <feMergeNode in="SourceGraphic"></feMergeNode>
            </feMerge>
        </filter>
        <rect id="path-2" x="17.3333333" y="43.7027027" width="8" height="5.2972973"></rect>
        <mask id="mask-3" maskContentUnits="userSpaceOnUse" maskUnits="objectBoundingBox" x="0" y="0" width="8" height="5.2972973" fill="white">
            <use xlink:href="#path-2"></use>
        </mask>
        <rect id="path-4" x="14.6666667" y="21.1891892" width="2.66666667" height="2.64864865"></rect>
        <mask id="mask-5" maskContentUnits="userSpaceOnUse" maskUnits="objectBoundingBox" x="0" y="0" width="2.66666667" height="2.64864865" fill="white">
            <use xlink:href="#path-4"></use>
        </mask>
        <rect id="path-6" x="26.6666667" y="21.1891892" width="2.66666667" height="2.64864865"></rect>
        <mask id="mask-7" maskContentUnits="userSpaceOnUse" maskUnits="objectBoundingBox" x="0" y="0" width="2.66666667" height="2.64864865" fill="white">
            <use xlink:href="#path-6"></use>
        </mask>
    </defs>
    <g id="Web" stroke="none" stroke-width="1" fill="none" fill-rule="evenodd">
        <g id="Home" transform="translate(-675.000000, -4436.000000)" stroke="#fff">
            <g id="快速导航" transform="translate(0.000000, 4272.000000)">
                <g id="Group-9" filter="url(#filter-1)" transform="translate(0.000000, 126.000000)">
                    <g id="7X24-小时售后" transform="translate(662.000000, 13.000000)">
                        <g transform="translate(0.000000, 11.000000)">
                            <g id="Group-15" transform="translate(36.000000, 34.000000)">
                                <path d="M24.8966824,47.4099018 C29.4175395,46.572407 33.425952,43.8048211 36.3524229,39.8093296 C37.3196725,38.48875 38.1687288,37.0340319 38.8790295,35.4705284" id="Oval-33" stroke-width="2"></path>
                                <path d="M40.2129009,15.8213308 C37.5427535,6.59965227 30.3964546,0 22,0 C13.5048884,0 6.28948326,6.75565319 3.69483679,16.1474702" id="Oval-33" stroke-width="2"></path>
                                <ellipse id="Oval-34" stroke-width="2" cx="4.66666667" cy="25.8243243" rx="4.66666667" ry="9.93243243"></ellipse>
                                <ellipse id="Oval-34-Copy" stroke-width="2" cx="39.3333333" cy="25.8243243" rx="4.66666667" ry="9.93243243"></ellipse>
                                <use id="Rectangle-68" mask="url(#mask-3)" stroke-width="4" xlink:href="#path-2"></use>
                                <use id="Rectangle-69" mask="url(#mask-5)" stroke-width="4" fill="#D8D8D8" xlink:href="#path-4"></use>
                                <use id="Rectangle-70" mask="url(#mask-7)" stroke-width="4" fill="#D8D8D8" xlink:href="#path-6"></use>
                                <path d="M28,37.7432432 C28,35.1833288 25.3137085,33.1081081 22,33.1081081 C18.6862915,33.1081081 16,35.1833288 16,37.7432432" id="Oval-36" stroke-width="2" transform="translate(22.000000, 35.425676) rotate(-180.000000) translate(-22.000000, -35.425676) "></path>
                            </g>
                            <path d="M20.4185246,77.1077549 C27.3449176,90.9996628 41.6936423,100.542373 58.2711864,100.542373 C81.6169181,100.542373 100.542373,81.6169181 100.542373,58.2711864 C100.542373,34.9254548 81.6169181,16 58.2711864,16 C34.9254548,16 16,34.9254548 16,58.2711864" id="Oval-7" stroke-width="2" transform="translate(58.271186, 58.271186) rotate(-30.000000) translate(-58.271186, -58.271186) "></path>
                        </g>
                    </g>
                </g>
            </g>
        </g>
    </g>
</svg>
